<?xml version="1.0" encoding="utf-8"?>
<!-- Generator: Adobe Illustrator 19.0.0, SVG Export Plug-In . SVG Version: 6.00 Build 0)  -->
<svg version="1.0" id="Layer_1" xmlns="http://www.w3.org/2000/svg" xmlns:xlink="http://www.w3.org/1999/xlink" x="0px" y="0px"
	 viewBox="0 0 1080 1080" style="enable-background:new 0 0 1080 1080;" xml:space="preserve">
<style type="text/css">
	.st0{clip-path:url(#SVGID_2_);fill:url(#SVGID_3_);}
	.st1{clip-path:url(#SVGID_5_);fill:url(#SVGID_6_);}
	.st2{clip-path:url(#SVGID_8_);fill:url(#SVGID_9_);}
	.st3{clip-path:url(#SVGID_11_);fill:url(#SVGID_12_);}
	.st4{clip-path:url(#SVGID_14_);fill:url(#SVGID_15_);}
	.st5{clip-path:url(#SVGID_17_);fill:url(#SVGID_18_);}
	.st6{clip-path:url(#SVGID_20_);fill:url(#SVGID_21_);}
	.st7{clip-path:url(#SVGID_23_);fill:url(#SVGID_24_);}
</style>
<path d="M838.2,568.6c0,185.7-150.5,336.2-336.2,336.2S165.8,754.3,165.8,568.6S316.3,232.4,502,232.4
	C687.6,232.4,838.2,382.9,838.2,568.6"/>
<g>
	<defs>
		<path id="SVGID_1_" d="M210,648.4c-7.4-30.5-11.2-55.7-11.2-79.9c0-167.6,136.4-304.3,304.3-304.3c129.1,0,243.4,82.6,284.3,205.3
			c12.1,33.5,17.7,66,17.7,99c0,168.1-135.4,304.3-302,304.3C366.4,872.8,245.7,780.4,210,648.4 M163.8,568.5
			c0,26.9,3.8,55.2,12.3,88.8c40.1,147.6,174.6,250.5,327,250.5c185.8,0,337.1-152,337.1-339.3c0-37.1-6.6-73.3-19.7-110.4
			C775,321.3,647.3,229.4,503.1,229.4C316,229.4,163.8,381.7,163.8,568.5"/>
	</defs>
	<clipPath id="SVGID_2_">
		<use xlink:href="#SVGID_1_"  style="overflow:visible;"/>
	</clipPath>
	
		<linearGradient id="SVGID_3_" gradientUnits="userSpaceOnUse" x1="-9.249388e-007" y1="1080" x2="1" y2="1080" gradientTransform="matrix(676.3852 0 0 -676.3852 163.8346 731064.625)">
		<stop  offset="0" style="stop-color:#0056D4"/>
		<stop  offset="1" style="stop-color:#2EFFEF"/>
	</linearGradient>
	<rect x="163.8" y="229.4" class="st0" width="676.4" height="678.5"/>
</g>
<g>
	<defs>
		<path id="SVGID_4_" d="M542.2,601.4c-1.6,20.4-7,27.7-7,27.7c-18.4,28.9-58.7,37.8-58.7,37.8h73.6c56.8,0.3,68.9-45.4,68.9-45.4
			v-52.3"/>
	</defs>
	<clipPath id="SVGID_5_">
		<use xlink:href="#SVGID_4_"  style="overflow:visible;"/>
	</clipPath>
	
		<linearGradient id="SVGID_6_" gradientUnits="userSpaceOnUse" x1="8.402769e-004" y1="1079.9886" x2="1.0033" y2="1079.9886" gradientTransform="matrix(-2.3687 81.2971 81.2971 2.3687 -87251.4766 -1962.9149)">
		<stop  offset="0" style="stop-color:#0059DE"/>
		<stop  offset="0.1735" style="stop-color:#0A7FE2"/>
		<stop  offset="0.4523" style="stop-color:#1AB6E7"/>
		<stop  offset="0.6931" style="stop-color:#25DDEC"/>
		<stop  offset="0.8836" style="stop-color:#2BF6EE"/>
		<stop  offset="1" style="stop-color:#2EFFEF"/>
	</linearGradient>
	<polygon class="st1" points="621.9,569.3 619,671.3 473.8,667.1 476.7,565.1 	"/>
</g>
<g>
	<defs>
		<path id="SVGID_7_" d="M440.4,415.1c-30.6,0-55.5,22.7-55.5,50.7v58.7c0-28,24.8-50.6,55.5-50.6l14.4,0l3.1,0l33.3,0l67.1-0.2
			c35.4,0,64-26.2,64-58.5H440.4z"/>
	</defs>
	<clipPath id="SVGID_8_">
		<use xlink:href="#SVGID_7_"  style="overflow:visible;"/>
	</clipPath>
	
		<linearGradient id="SVGID_9_" gradientUnits="userSpaceOnUse" x1="1.285438e-006" y1="1080" x2="1" y2="1080" gradientTransform="matrix(237.4037 0 0 -237.4037 384.9607 256865.7969)">
		<stop  offset="0" style="stop-color:#0182E5"/>
		<stop  offset="1" style="stop-color:#00EBF4"/>
	</linearGradient>
	<rect x="385" y="415.1" class="st2" width="237.4" height="109.4"/>
</g>
<g>
	<defs>
		<path id="SVGID_10_" d="M614.3,632.4c-1.4,2.4-2.9,4.8-4.6,7.1c-10.3,14.1-28.5,23.2-42.9,25.8c-1,0.2-2.3,0.4-3.3,0.5l-4.5,0.5
			l-13,0.3H445.7c-35.4,0-64,26.2-64,58.5h181.9c30.6,0,55.5-22.7,55.5-50.7v-58.7C619.1,621.8,617.2,627.3,614.3,632.4"/>
	</defs>
	<clipPath id="SVGID_11_">
		<use xlink:href="#SVGID_10_"  style="overflow:visible;"/>
	</clipPath>
	
		<linearGradient id="SVGID_12_" gradientUnits="userSpaceOnUse" x1="-5.456968e-012" y1="1079.9983" x2="1" y2="1079.9983" gradientTransform="matrix(237.4012 -1.0941 1.0941 237.4012 -829.924 -255721.6875)">
		<stop  offset="0" style="stop-color:#0280E6"/>
		<stop  offset="1" style="stop-color:#00E6F0"/>
	</linearGradient>
	<polygon class="st3" points="381.7,726.3 619.6,725.2 619.1,614.7 381.2,615.8 	"/>
</g>
<g>
	<defs>
		<path id="SVGID_13_" d="M436.7,473.6c0,0-12.9,0.3-25.2,6.4c-9.9,4.9-18.9,13.6-24.3,27.9c0,0,4.5,14.5,21.5,23.9
			c6.4,3.6,14.6,5.6,24.8,7.1c3.3,0.5,6.5,0.5,9.8,0.4c1,0,2,0,3.1,0c0.6,0,9.8,0,13.6,0c0,0-3.1-50.8,60.8-62.5l20.5-3.5
			L436.7,473.6z"/>
	</defs>
	<clipPath id="SVGID_14_">
		<use xlink:href="#SVGID_13_"  style="overflow:visible;"/>
	</clipPath>
	
		<linearGradient id="SVGID_15_" gradientUnits="userSpaceOnUse" x1="-1.200212e-003" y1="1079.9998" x2="1.0088" y2="1079.9998" gradientTransform="matrix(0.417 151.1965 151.1965 -0.417 -162827.9531 938.5359)">
		<stop  offset="0" style="stop-color:#00EEEE"/>
		<stop  offset="2.994496e-002" style="stop-color:#00E0ED"/>
		<stop  offset="9.948009e-002" style="stop-color:#00C5EB"/>
		<stop  offset="0.1795" style="stop-color:#00AFE9"/>
		<stop  offset="0.2728" style="stop-color:#009EE8"/>
		<stop  offset="0.3883" style="stop-color:#0093E7"/>
		<stop  offset="0.5503" style="stop-color:#008CE6"/>
		<stop  offset="1" style="stop-color:#008AE6"/>
	</linearGradient>
	<polygon class="st4" points="541.3,472.9 541.5,539.4 387.2,539.8 387,473.3 	"/>
</g>
<g>
	<defs>
		<path id="SVGID_16_" d="M385,551c0,28,24.8,50.7,55.5,50.7h57.7h44.2h15.5c0.4,0,0.9,0,1.4,0c21.9-0.1,42.7-10.1,56.3-27.3
			c2.8-3.6,3.5-5.2,3.5-5.2c-10.6-19.7-33.9-29.9-64-30.3l-25.3,0l-84.1,0.1l-3.2,0c-30.6,0-57.5-18.7-57.5-46.7V551z"/>
	</defs>
	<clipPath id="SVGID_17_">
		<use xlink:href="#SVGID_16_"  style="overflow:visible;"/>
	</clipPath>
	
		<linearGradient id="SVGID_18_" gradientUnits="userSpaceOnUse" x1="1.173073e-006" y1="1080" x2="1" y2="1080" gradientTransform="matrix(234.1331 0 0 -234.1331 384.9607 253410.7188)">
		<stop  offset="0" style="stop-color:#0182E5"/>
		<stop  offset="1" style="stop-color:#2EFFEF"/>
	</linearGradient>
	<rect x="385" y="492.3" class="st5" width="234.1" height="109.4"/>
</g>
<g>
	<defs>
		<path id="SVGID_19_" d="M244.5,558.3c-0.1,13.1,12.5,13.3,12.5,13.3c9.7-0.1,9.5-6.6,9.5-6.6c16.8-245.8,246.4-232.5,246.4-232.5
			c18.6,0.3,18.3-11,18.3-11c1-6.7-3.6-10.1-7.8-11.9c-2.9-1.2-6-1.7-9.1-1.6c-2.8,0.1-5.6,0.2-8.4,0.3
			C245.5,319.6,244.5,558.3,244.5,558.3"/>
	</defs>
	<clipPath id="SVGID_20_">
		<use xlink:href="#SVGID_19_"  style="overflow:visible;"/>
	</clipPath>
	
		<linearGradient id="SVGID_21_" gradientUnits="userSpaceOnUse" x1="-2.582480e-003" y1="1080.0442" x2="0.9974" y2="1080.0442" gradientTransform="matrix(549.163 9.268 7.7568 -563.8433 -8133.0225 609413.0625)">
		<stop  offset="0" style="stop-color:#005BDD"/>
		<stop  offset="0.1828" style="stop-color:#007EE1"/>
		<stop  offset="0.8705" style="stop-color:#00FFF0"/>
		<stop  offset="1" style="stop-color:#00FFF0"/>
	</linearGradient>
	<polygon class="st6" points="233.7,302.1 546.3,307.4 542.6,577.5 230,572.3 	"/>
</g>
<g>
	<defs>
		<path id="SVGID_22_" d="M740.6,565.7c-11.9,246.1-242,238.2-242,238.2c-18.6,0.1-18.1,11.4-18.1,11.4c-0.9,6.7,3.8,10,8,11.7
			c2.9,1.1,6,1.6,9.1,1.4c269-12.7,265.1-256.5,265.1-256.5c-0.2-13.1-12.7-13-12.7-13C740.3,559.2,740.6,565.7,740.6,565.7"/>
	</defs>
	<clipPath id="SVGID_23_">
		<use xlink:href="#SVGID_22_"  style="overflow:visible;"/>
	</clipPath>
	
		<linearGradient id="SVGID_24_" gradientUnits="userSpaceOnUse" x1="-2.491444e-003" y1="1080.0328" x2="0.9975" y2="1080.0328" gradientTransform="matrix(614.814 -3.757 -4.0836 -630.3635 4617.1045 681509.5625)">
		<stop  offset="0" style="stop-color:#005DDD"/>
		<stop  offset="0.1182" style="stop-color:#0265DE"/>
		<stop  offset="0.3" style="stop-color:#087AE0"/>
		<stop  offset="0.5226" style="stop-color:#129DE4"/>
		<stop  offset="0.7751" style="stop-color:#20CEEA"/>
		<stop  offset="1" style="stop-color:#2EFFEF"/>
	</linearGradient>
	<polygon class="st7" points="476.1,560.5 765.1,558.7 766.8,827 477.8,828.8 	"/>
</g>
</svg>
